0
SECTION
2
HEADER
9
$INSUNITS
70
4
0
ENDSEC
0
SECTION
2
TABLES
0
TABLE
2
LTYPE
0
LTYPE
72
65
70
64
2
CONTINUOUS
3
______
73
0
40
0
0
ENDTAB
0
TABLE
2
LAYER
0
ENDTAB
0
ENDSEC
0
SECTION
2
ENTITIES
0
LINE
8
0
10
-10.7165176
20
-6.1871843
11
6.1871843
21
-10.7165176
0
LINE
8
0
10
6.1871843
20
-10.7165176
11
19.5163651
21
39.0286624
0
LINE
8
0
10
-10.7165176
20
-6.1871843
11
2.6126632
21
43.5579957
0
LINE
8
0
10
19.5163651
20
39.0286624
11
2.6126632
21
43.5579957
0
LINE
8
0
10
11.5094549
20
-0.0529302
11
27.9540758
21
-6.0382827
0
LINE
8
0
10
27.9540758
20
-6.0382827
11
29.0852287
21
-2.9304656
0
LINE
8
0
10
15.4316236
20
10.7231395
11
11.5094549
21
-0.0529302
0
LINE
8
0
10
17.8872391
20
17.469888
11
29.1234923
21
48.3412398
0
LINE
8
0
10
44.1803277
20
38.5429778
11
45.5681132
21
42.3558873
0
LINE
8
0
10
45.5681132
20
42.3558873
11
29.1234923
21
48.3412398
0
LINE
8
0
10
59.0042418
20
23.7190638
11
65.1323736
21
40.5559677
0
LINE
8
0
10
65.1323736
20
40.5559677
11
48.6877527
21
46.5413202
0
LINE
8
0
10
48.6877527
20
46.5413202
11
45.3506366
21
37.3726689
0
LINE
8
0
10
73.828156
20
8.8951495
11
80.9344127
21
28.4194293
0
LINE
8
0
10
80.9344127
20
28.4194293
11
64.4897918
21
34.4047818
0
LINE
8
0
10
64.4897918
20
34.4047818
11
60.1745508
21
22.5487547
0
LINE
8
0
10
88.6520702
20
-5.9287646
11
98.1045322
21
20.0416612
0
LINE
8
0
10
74.998465
20
7.7248405
11
81.6599113
21
26.0270137
0
LINE
8
0
10
98.1045322
20
20.0416612
11
81.6599113
21
26.0270137
0
LINE
8
0
10
49.7742979
20
-35.2637495
11
66.2189188
21
-41.249102
0
LINE
8
0
10
66.2189188
20
-41.249102
11
66.5351172
21
-40.3803541
0
LINE
8
0
10
52.881512
20
-26.7267489
11
49.7742979
21
-35.2637495
0
LINE
8
0
10
69.0313613
20
-43.8026921
11
80.7411469
21
-56.8077265
0
LINE
8
0
10
80.7411469
20
-56.8077265
11
93.7461813
21
-45.0979409
0
LINE
8
0
10
93.7461813
20
-45.0979409
11
92.819833
21
-44.0691269
0
LINE
8
0
10
69.5186755
20
-43.3639124
11
69.0313613
21
-43.8026921
0
LINE
8
0
10
-26.0326301
20
6.1989651
11
-9.1289282
21
1.6696318
0
LINE
8
0
10
-9.1289282
20
1.6696318
11
-0.1996711
21
34.9940728
0
LINE
8
0
10
-26.0326301
20
6.1989651
11
-17.103373
21
39.5234061
0
LINE
8
0
10
-0.1996711
20
34.9940728
11
-17.103373
21
39.5234061
0
LINE
8
0
10
103.2193043
20
-18.5340968
11
109.2046568
21
-2.0894759
0
LINE
8
0
10
109.2046568
20
-2.0894759
11
92.7600359
21
3.8958766
0
LINE
8
0
10
92.7600359
20
3.8958766
11
89.0421731
21
-6.3188675
0
LINE
8
0
10
100.1346972
20
-17.4113916
11
103.2193043
21
-18.5340968
0
LINE
8
0
10
13.2860571
20
12.868706
11
15.4316236
21
10.7231395
0
LINE
8
0
10
29.0852287
20
-2.9304656
11
52.881512
21
-26.7267489
0
LINE
8
0
10
66.5351172
20
-40.3803541
11
69.5186755
21
-43.3639124
0
LINE
8
0
10
92.819833
20
-44.0691269
11
109.8061327
21
-27.0828271
0
LINE
8
0
10
109.8061327
20
-27.0828271
11
100.1346972
21
-17.4113916
0
LINE
8
0
10
45.3506366
20
37.3726689
11
44.1803277
21
38.5429778
0
LINE
8
0
10
60.1745508
20
22.5487547
11
59.0042418
21
23.7190638
0
LINE
8
0
10
74.998465
20
7.7248405
11
73.828156
21
8.8951495
0
LINE
8
0
10
89.0421731
20
-6.3188675
11
88.6520702
21
-5.9287646
0
LINE
8
0
10
17.8872391
20
17.469888
11
13.2860571
21
12.868706
0
ENDSEC
0
EOF